HIERARCHY
ROOT joint_Root
{
	OFFSET 0.0 0.0 0.0
	CHANNELS 6 Xposition Yposition Zposition Zrotation Xrotation Yrotation 
	JOINT Hips
	{
		OFFSET 4.5925 91.4895 -427.239
		CHANNELS 6 Xposition Yposition Zposition Zrotation Xrotation Yrotation 
		JOINT Spine
		{
			OFFSET 15.7357 0.0 0.0
			CHANNELS 6 Xposition Yposition Zposition Zrotation Xrotation Yrotation 
			JOINT Chest
			{
				OFFSET 8.98455 -0.406207 0.0
				CHANNELS 6 Xposition Yposition Zposition Zrotation Xrotation Yrotation 
				JOINT Neck
				{
					OFFSET 16.3773 0.0 0.0
					CHANNELS 6 Xposition Yposition Zposition Zrotation Xrotation Yrotation 
					JOINT Head
					{
						OFFSET 6.45672 0.0 0.0
						CHANNELS 6 Xposition Yposition Zposition Zrotation Xrotation Yrotation 
						End Site
						{
							OFFSET 0.0 0.0 0.0
						}
					}
				}
				JOINT Shoulder_L
				{
					OFFSET 12.9942 -0.242716 4.98039
					CHANNELS 6 Xposition Yposition Zposition Zrotation Xrotation Yrotation 
					JOINT UpperArm_L
					{
						OFFSET 5.34809 0.0 0.0
						CHANNELS 6 Xposition Yposition Zposition Zrotation Xrotation Yrotation 
						JOINT LowerArm_L
						{
							OFFSET 24.3286 1.87007e-05 0.0
							CHANNELS 6 Xposition Yposition Zposition Zrotation Xrotation Yrotation 
							JOINT Hand_L
							{
								OFFSET 22.2916 0.0 0.0
								CHANNELS 6 Xposition Yposition Zposition Zrotation Xrotation Yrotation 
								End Site
								{
									OFFSET 0.0 0.0 0.0
								}
							}
						}
					}
				}
				JOINT Shoulder_R
				{
					OFFSET 12.9945 -0.242716 -4.98039
					CHANNELS 6 Xposition Yposition Zposition Zrotation Xrotation Yrotation 
					JOINT UpperArm_R
					{
						OFFSET -5.34813 0.0 0.0
						CHANNELS 6 Xposition Yposition Zposition Zrotation Xrotation Yrotation 
						JOINT LowerArm_R
						{
							OFFSET -24.3289 0.000322201 0.0
							CHANNELS 6 Xposition Yposition Zposition Zrotation Xrotation Yrotation 
							JOINT Hand_R
							{
								OFFSET -22.2915 -0.000108084 0.0
								CHANNELS 6 Xposition Yposition Zposition Zrotation Xrotation Yrotation 
								End Site
								{
									OFFSET 0.0 0.0 0.0
								}
							}
						}
					}
				}
			}
		}
		JOINT UpperLeg_L
		{
			OFFSET -2.19248 -6.46944 0.0
			CHANNELS 6 Xposition Yposition Zposition Zrotation Xrotation Yrotation 
			JOINT LowerLeg_L
			{
				OFFSET 39.0811 0.0 -1.23785e-05
				CHANNELS 6 Xposition Yposition Zposition Zrotation Xrotation Yrotation 
				JOINT Foot_L
				{
					OFFSET 40.9854 0.0 -1.26872e-05
					CHANNELS 6 Xposition Yposition Zposition Zrotation Xrotation Yrotation 
					JOINT Toes_L
					{
						OFFSET 11.7543 0.0 0.0
						CHANNELS 6 Xposition Yposition Zposition Zrotation Xrotation Yrotation 
						End Site
						{
							OFFSET 0.0 0.0 0.0
						}
					}
				}
			}
		}
		JOINT UpperLeg_R
		{
			OFFSET -2.19251 6.46944 0.0
			CHANNELS 6 Xposition Yposition Zposition Zrotation Xrotation Yrotation 
			JOINT LowerLeg_R
			{
				OFFSET -39.0811 -0.00228153 -0.0401928
				CHANNELS 6 Xposition Yposition Zposition Zrotation Xrotation Yrotation 
				JOINT Foot_R
				{
					OFFSET -40.9854 0.0 0.0
					CHANNELS 6 Xposition Yposition Zposition Zrotation Xrotation Yrotation 
					JOINT Toes_R
					{
						OFFSET -11.7543 0.0 0.0
						CHANNELS 6 Xposition Yposition Zposition Zrotation Xrotation Yrotation 
						End Site
						{
							OFFSET 0.0 0.0 0.0
						}
					}
				}
			}
		}
	}
}
MOTION
Frames:	4
Frame Time:	0.0333333
0.000000 0.000000 0.000000 0.000000 0.000000 -0.000000 -0.842232 89.892600 -4.806900 89.370800 -3.228600 10.623600 15.735700 0.000005 -0.000001 90.514700 75.939800 -89.957400 8.984550 -0.406207 -0.000000 20.352100 0.307672 1.063240 16.377300 -0.000001 -0.000001 6.979900 -2.759850 1.810420 6.456720 -0.000001 -0.000000 -6.605090 -3.119750 7.265570 12.994200 -0.242716 4.980390 -89.851000 -0.421318 -70.526100 5.348090 -0.000007 -0.000001 -77.174200 -24.710100 -80.068800 24.328600 0.000019 0.000005 32.628800 -12.247400 -108.332000 22.291600 -0.000001 0.000005 18.440800 5.027710 6.724470 12.994500 -0.242716 -4.980390 89.034700 9.712670 -84.296500 -5.348130 -0.000001 -0.000004 -53.558700 33.073700 -27.409500 -24.328900 0.000322 -0.000009 1.500950 3.746000 -21.867600 -22.291500 -0.000108 -0.000004 16.966700 5.424240 -3.742490 -2.192480 -6.469440 -0.000000 -174.443000 -12.432300 -5.750010 39.081100 -0.000007 -0.000012 -0.204557 0.275593 36.584800 40.985400 -0.000006 -0.000013 -0.137288 4.072980 -69.878100 11.754300 -0.000000 0.000003 -0.000117 -0.001179 -16.622600 -2.192510 6.469440 -0.000001 176.149000 17.785400 174.947000 -39.081100 -0.002282 -0.040193 -0.097429 0.136929 36.336000 -40.985400 0.000008 0.000006 5.959180 10.953100 -71.172100 -11.754300 -0.000006 -0.000006 -0.002102 -0.029991 -17.792600
0.000000 0.000000 0.000000 0.000000 0.000000 -0.000000 -0.861584 89.895400 -4.790460 89.372900 -3.204110 10.570300 15.735700 0.000005 -0.000001 90.487400 75.935000 -89.928200 8.984550 -0.406207 -0.000000 20.361800 0.294858 1.069080 16.377300 -0.000001 -0.000001 6.950970 -2.759150 1.789610 6.456720 -0.000001 -0.000000 -6.561010 -3.104680 7.349200 12.994200 -0.242716 4.980390 -89.840500 -0.450117 -70.482100 5.348090 -0.000007 -0.000001 -77.324200 -24.707000 -80.138400 24.328600 0.000019 0.000005 32.561500 -12.252800 -108.384000 22.291600 -0.000001 0.000005 18.530600 5.031290 6.646500 12.994500 -0.242716 -4.980390 89.031700 9.714080 -84.280100 -5.348130 -0.000001 -0.000004 -53.533400 33.089400 -27.432100 -24.328900 0.000322 -0.000009 1.509210 3.761480 -21.894800 -22.291500 -0.000108 -0.000004 16.996100 5.423370 -3.713020 -2.192480 -6.469440 -0.000000 -174.445000 -12.356100 -5.784290 39.081100 -0.000007 -0.000012 -0.207043 0.279156 36.563700 40.985400 -0.000006 -0.000013 -0.156600 4.097360 -69.879100 11.754300 -0.000000 0.000003 -0.000122 -0.001218 -16.624100 -2.192510 6.469440 -0.000001 176.163000 17.838000 174.920000 -39.081100 -0.002282 -0.040193 -0.100516 0.141247 36.312600 -40.985400 0.000008 0.000006 5.883730 10.944700 -71.156500 -11.754300 -0.000006 -0.000006 -0.002158 -0.030672 -17.820300
0.000000 0.000000 0.000000 0.000000 0.000000 -0.000000 -0.880098 89.904500 -4.776760 89.386800 -3.185060 10.534300 15.735700 0.000005 -0.000001 90.562400 75.928400 -90.005300 8.984550 -0.406207 -0.000000 20.374700 0.330829 1.058560 16.377300 -0.000001 -0.000001 6.947360 -2.786800 1.789040 6.456720 -0.000001 -0.000000 -6.526250 -3.113430 7.400980 12.994200 -0.242716 4.980390 -89.836200 -0.461931 -70.475800 5.348090 -0.000007 -0.000001 -77.424800 -24.655700 -80.231200 24.328600 0.000019 0.000005 32.548900 -12.244600 -108.381000 22.291600 -0.000001 0.000005 18.661800 5.035210 6.561390 12.994500 -0.242716 -4.980390 89.027300 9.710330 -84.252100 -5.348130 -0.000001 -0.000004 -53.556500 33.042100 -27.429400 -24.328900 0.000322 -0.000009 1.512370 3.770920 -21.886600 -22.291500 -0.000108 -0.000004 16.986300 5.423000 -3.700210 -2.192480 -6.469440 -0.000000 -174.462000 -12.405100 -5.785620 39.081100 -0.000007 -0.000012 -0.201287 0.271872 36.515700 40.985400 -0.000006 -0.000013 -0.161929 4.084140 -69.863300 11.754300 -0.000000 0.000003 -0.000123 -0.001232 -16.624600 -2.192510 6.469440 -0.000001 176.170000 17.842300 174.913000 -39.081100 -0.002282 -0.040193 -0.097448 0.137228 36.281500 -40.985400 0.000008 0.000006 5.932180 10.937300 -71.169200 -11.754300 -0.000006 -0.000006 -0.002110 -0.030081 -17.796300
0.000000 0.000000 0.000000 0.000000 0.000000 -0.000000 -0.897919 89.905600 -4.764430 89.386900 -3.153960 10.471800 15.735700 0.000005 -0.000001 90.550100 75.932400 -89.985800 8.984550 -0.406207 -0.000000 20.366600 0.325580 1.073860 16.377300 -0.000001 -0.000001 6.954070 -2.811730 1.776700 6.456720 -0.000001 -0.000000 -6.494890 -3.110940 7.379340 12.994200 -0.242716 4.980390 -89.831900 -0.473965 -70.465200 5.348090 -0.000007 -0.000001 -77.525800 -24.676600 -80.283900 24.328600 0.000019 0.000005 32.602600 -12.290300 -108.408000 22.291600 -0.000001 0.000005 18.724500 5.034110 6.585130 12.994500 -0.242716 -4.980390 89.028000 9.674030 -84.234900 -5.348130 -0.000001 -0.000004 -53.563600 33.039500 -27.482500 -24.328900 0.000322 -0.000009 1.507580 3.762850 -21.866100 -22.291500 -0.000108 -0.000004 16.991000 5.423130 -3.704680 -2.192480 -6.469440 -0.000000 -174.475000 -12.314000 -5.849770 39.081100 -0.000007 -0.000012 -0.204491 0.276284 36.507300 40.985400 -0.000006 -0.000013 -0.194968 4.044110 -69.857200 11.754300 -0.000000 0.000003 -0.000125 -0.001241 -16.624900 -2.192510 6.469440 -0.000001 176.182000 17.889800 174.869000 -39.081100 -0.002282 -0.040193 -0.104047 0.146292 36.267500 -40.985400 0.000008 0.000006 5.875030 10.941500 -71.159700 -11.754300 -0.000006 -0.000006 -0.002126 -0.030277 -17.804300
